<svg width="42" height="42" viewBox="0 0 42 42" fill="none" xmlns="http://www.w3.org/2000/svg">
<g id="ant-design:product-filled">
<path id="Vector" fill-rule="evenodd" clip-rule="evenodd" d="M6.5625 5.90624H19.0312C19.3937 5.90624 19.6875 6.20003 19.6875 6.56249V19.0312C19.6875 19.3937 19.3937 19.6875 19.0312 19.6875H6.5625C6.20004 19.6875 5.90625 19.3937 5.90625 19.0312V6.56249C5.90625 6.20003 6.20004 5.90624 6.5625 5.90624ZM29.7082 4.86719L37.1328 12.2918C37.3891 12.5481 37.3891 12.9636 37.1328 13.2199L29.7081 20.6445C29.4519 20.9008 29.0364 20.9008 28.7801 20.6445L21.3555 13.2199C21.0992 12.9636 21.0992 12.5481 21.3555 12.2918L28.7801 4.86719C29.0364 4.61092 29.4519 4.61092 29.7082 4.86719ZM6.5625 22.3125H19.0312C19.3937 22.3125 19.6875 22.6063 19.6875 22.9687V35.4375C19.6875 35.7999 19.3937 36.0937 19.0312 36.0937H6.5625C6.20004 36.0937 5.90625 35.7999 5.90625 35.4375V22.9687C5.90625 22.6063 6.20004 22.3125 6.5625 22.3125ZM22.9688 22.3125H35.4375C35.8 22.3125 36.0938 22.6063 36.0938 22.9687V35.4375C36.0938 35.7999 35.8 36.0937 35.4375 36.0937H22.9688C22.6063 36.0937 22.3125 35.7999 22.3125 35.4375V22.9687C22.3125 22.6063 22.6063 22.3125 22.9688 22.3125Z" fill="black"/>
</g>
</svg>
