<svg width="38" height="38" viewBox="0 0 38 38" fill="none" xmlns="http://www.w3.org/2000/svg">
<path id="Vector" fill-rule="evenodd" clip-rule="evenodd" d="M26.5066 5.11546L29.9379 8.54671C34.9797 13.5905 37.4997 16.1105 37.4997 19.2417C37.4997 22.3748 34.9797 24.8948 29.9379 29.9367C24.8941 34.9805 22.3741 37.5005 19.241 37.5005C16.1097 37.5005 13.5879 34.9805 8.546 29.9386L5.11475 26.5073C2.21787 23.6086 0.768499 22.1611 0.230374 20.2805C-0.309626 18.3998 0.151624 16.403 1.07412 12.4111L1.60475 10.1086C2.37912 6.74859 2.76725 5.06859 3.91662 3.91734C5.066 2.76609 6.74787 2.37984 10.1079 1.60546L12.4104 1.07296C16.4041 0.152335 18.3991 -0.308915 20.2797 0.22921C22.1604 0.76921 23.6097 2.21859 26.5066 5.11546ZM17.1485 23.1155C15.8866 21.8555 15.896 20.0442 16.6516 18.6098C16.4646 18.3396 16.378 18.0125 16.4071 17.6851C16.4361 17.3578 16.5789 17.0509 16.8106 16.8179C17.0423 16.5848 17.3483 16.4403 17.6755 16.4094C18.0027 16.3784 18.3304 16.4631 18.6016 16.6486C19.2391 16.3111 19.9385 16.1311 20.636 16.1386C21.009 16.1421 21.3653 16.2936 21.6265 16.5597C21.8878 16.8259 22.0326 17.185 22.0291 17.558C22.0256 17.9309 21.8741 18.2872 21.608 18.5485C21.3418 18.8097 20.9827 18.9546 20.6097 18.9511C20.1756 18.9671 19.7653 19.1538 19.4679 19.4705C18.7423 20.1961 18.9316 20.9236 19.136 21.128C19.3422 21.3323 20.0679 21.5217 20.7935 20.7961C22.2635 19.3261 24.8022 18.8386 26.4279 20.4642C27.6897 21.7261 27.6804 23.5373 26.9247 24.9717C27.1106 25.242 27.1962 25.5687 27.1666 25.8954C27.1371 26.2221 26.9942 26.5281 26.7629 26.7606C26.5315 26.9931 26.2261 27.1374 25.8996 27.1685C25.573 27.1997 25.2459 27.1157 24.9747 26.9311C24.1334 27.3927 23.1573 27.5466 22.2147 27.3661C21.8492 27.291 21.5285 27.0738 21.3232 26.7622C21.1178 26.4507 21.0447 26.0703 21.1197 25.7048C21.1948 25.3393 21.412 25.0186 21.7236 24.8133C22.0351 24.6079 22.4155 24.5347 22.781 24.6098C23.1129 24.6792 23.6491 24.5705 24.1085 24.1111C24.8341 23.3836 24.6447 22.658 24.4404 22.4536C24.2341 22.2492 23.5085 22.0598 22.7829 22.7855C21.3129 24.2555 18.7741 24.743 17.1485 23.1155ZM15.0372 15.5498C15.3854 15.2015 15.6616 14.7881 15.85 14.3331C16.0383 13.8781 16.1352 13.3904 16.1352 12.8979C16.1351 12.4055 16.038 11.9178 15.8494 11.4629C15.6609 11.0079 15.3846 10.5946 15.0363 10.2464C14.688 9.89823 14.2746 9.62207 13.8195 9.43369C13.3645 9.24531 12.8769 9.1484 12.3844 9.14849C11.8919 9.14858 11.4043 9.24566 10.9493 9.4342C10.4944 9.62274 10.081 9.89904 9.73287 10.2473C9.02972 10.9507 8.63479 11.9047 8.63496 12.8992C8.63514 13.8938 9.03041 14.8476 9.73381 15.5508C10.4372 16.2539 11.3911 16.6489 12.3857 16.6487C13.3803 16.6485 14.3341 16.2532 15.0372 15.5498Z" fill="black"/>
</svg>
