<svg width="40" height="38" viewBox="0 0 40 38" fill="none" xmlns="http://www.w3.org/2000/svg">
<path id="Vector" d="M1.00703 17.0997C0.98455 16.8408 1.01613 16.5801 1.09977 16.334C1.1834 16.088 1.31726 15.862 1.49286 15.6705C1.66846 15.4789 1.88196 15.326 2.11981 15.2213C2.35766 15.1166 2.61467 15.0626 2.87453 15.0625H6.45484C6.95212 15.0625 7.42903 15.26 7.78067 15.6117C8.1323 15.9633 8.32984 16.4402 8.32984 16.9375V34.75C8.32984 35.2473 8.1323 35.7242 7.78067 36.0758C7.42903 36.4275 6.95212 36.625 6.45484 36.625H4.42422C3.95493 36.6251 3.50266 36.4492 3.15674 36.1321C2.81081 35.815 2.59637 35.3797 2.55578 34.9122L1.00703 17.0997ZM13.9548 16.3516C13.9548 15.5678 14.4423 14.8666 15.1502 14.5328C16.6961 13.8034 19.3295 12.3381 20.5173 10.3572C22.0483 7.80343 22.337 3.18999 22.3839 2.13343C22.3905 1.98531 22.3867 1.83718 22.4064 1.69093C22.6605 -0.140005 26.1939 1.99843 27.5486 4.25968C28.2845 5.48593 28.3783 7.09749 28.3014 8.35656C28.218 9.70281 27.8233 11.0031 27.4361 12.295L26.6111 15.0484H36.7895C37.0792 15.0484 37.365 15.1155 37.6244 15.2445C37.8838 15.3735 38.1098 15.5608 38.2846 15.7918C38.4595 16.0227 38.5784 16.2911 38.6321 16.5758C38.6858 16.8604 38.6729 17.1537 38.5942 17.4325L33.5598 35.26C33.4487 35.6532 33.2122 35.9993 32.8862 36.2457C32.5603 36.4921 32.1628 36.6253 31.7542 36.625H15.8298C15.3326 36.625 14.8556 36.4275 14.504 36.0758C14.1524 35.7242 13.9548 35.2473 13.9548 34.75V16.3516Z" fill="black" stroke="black" stroke-width="2" stroke-linecap="round" stroke-linejoin="round"/>
</svg>
