<svg width="45" height="45" viewBox="0 0 45 45" fill="none" xmlns="http://www.w3.org/2000/svg">
<g id="material-symbols:search">
<path id="Vector" d="M36.75 39.375L24.9375 27.5625C24 28.3125 22.9219 28.9062 21.7031 29.3438C20.4844 29.7812 19.1875 30 17.8125 30C14.4063 30 11.5238 28.82 9.165 26.46C6.80625 24.1 5.62625 21.2175 5.625 17.8125C5.62375 14.4075 6.80375 11.525 9.165 9.165C11.5263 6.805 14.4088 5.625 17.8125 5.625C21.2163 5.625 24.0994 6.805 26.4619 9.165C28.8244 11.525 30.0038 14.4075 30 17.8125C30 19.1875 29.7813 20.4844 29.3438 21.7031C28.9063 22.9219 28.3125 24 27.5625 24.9375L39.375 36.75L36.75 39.375ZM17.8125 26.25C20.1563 26.25 22.1488 25.43 23.79 23.79C25.4313 22.15 26.2513 20.1575 26.25 17.8125C26.2488 15.4675 25.4288 13.4756 23.79 11.8369C22.1513 10.1981 20.1588 9.3775 17.8125 9.375C15.4663 9.3725 13.4744 10.1931 11.8369 11.8369C10.1994 13.4806 9.37875 15.4725 9.375 17.8125C9.37125 20.1525 10.1919 22.145 11.8369 23.79C13.4819 25.435 15.4738 26.255 17.8125 26.25Z" fill="black"/>
</g>
</svg>
